<?xml version="1.0" standalone="no"?><!DOCTYPE svg PUBLIC "-//W3C//DTD SVG 1.1//EN" "http://www.w3.org/Graphics/SVG/1.1/DTD/svg11.dtd"><svg t="1590044610227" class="icon" viewBox="0 0 1086 1024" version="1.1" xmlns="http://www.w3.org/2000/svg" p-id="4949" xmlns:xlink="http://www.w3.org/1999/xlink" width="212.109375" height="200"><defs><style type="text/css"></style></defs><path d="M482.273215 483.103797m-482.273215 0a482.273215 482.273215 0 1 0 964.54643 0 482.273215 482.273215 0 1 0-964.54643 0Z" fill="#E0E0E4" p-id="4950"></path><path d="M481.91151 129.155446C331.495853 129.155446 305.600461 277.119548 268.224286 393.588529c-51.241529 159.726209 12.177399 185.420655 12.177399 185.420655l201.509825 1.487009z" fill="#492A08" p-id="4951"></path><path d="M399.590151 645.763835c-43.900259 46.646537-97.15126 68.174678-172.814568 79.146393-91.096052 13.222324-102.992124 98.477511-102.992125 122.162485v111.458698h358.128052V645.763835z" fill="#32CB9D" p-id="4952"></path><path d="M481.91151 545.43761H398.170125v108.310526c0 16.075774 26.55182 67.102959 83.741385 67.102959z" fill="#EAC1A4" p-id="4953"></path><path d="M481.924906 720.851095l-82.321358-68.228263-40.109056 22.47929" fill="#DDDCDB" p-id="4954"></path><path d="M398.170125 646.80876l-38.675633 28.373741 99.54923 119.697532 22.867788-74.015542z" fill="#FFFFFF" p-id="4955"></path><path d="M343.057014 447.710301a7.56901 7.56901 0 1 1-7.569011-7.56901 7.56901 7.56901 0 0 1 7.569011 7.56901z" fill="#CC646E" p-id="4956"></path><path d="M481.91151 129.155446c150.415657 0 223.89534 169.907533 220.733771 292.190586s25.064811 157.341636 25.064811 157.341636l-245.798582 1.808525z" fill="#492A08" p-id="4957"></path><path d="M564.232868 645.763835c43.900259 46.646537 97.15126 68.174678 172.814569 79.146393 91.096052 13.222324 102.992124 98.477511 102.992124 122.162485v111.458698H481.91151V645.763835z" fill="#32CB9D" p-id="4958"></path><path d="M481.91151 545.43761h83.741385v108.310526c0 16.075774-26.55182 67.102959-83.741385 67.102959z" fill="#EAC1A4" p-id="4959"></path><path d="M481.91151 204.617808c-123.475339 0-141.774929 89.274131-141.774929 199.393181 0 112.771553 77.605798 185.728774 141.774929 185.728774 61.208509 0 141.774929-72.95722 141.774929-185.728774 0-110.119051-18.286193-199.393181-141.774929-199.393181z" fill="#EBCFB7" p-id="4960"></path><path d="M481.91151 720.851095l82.321358-68.228263 40.09566 22.546272" fill="#DDDCDB" p-id="4961"></path><path d="M565.652895 646.80876l38.675633 28.373741-99.562626 119.697532-22.867788-74.015542z" fill="#FFFFFF" p-id="4962"></path><path d="M620.806196 447.710301a7.56901 7.56901 0 1 0 7.56901-7.56901 7.56901 7.56901 0 0 0-7.56901 7.56901z" fill="#CC646E" p-id="4963"></path><path d="M463.437767 829.92522m-8.895262 0a8.895262 8.895262 0 1 0 17.790523 0 8.895262 8.895262 0 1 0-17.790523 0Z" fill="#FFFFFF" p-id="4964"></path><path d="M463.437767 882.868102m-8.895262 0a8.895262 8.895262 0 1 0 17.790523 0 8.895262 8.895262 0 1 0-17.790523 0Z" fill="#FFFFFF" p-id="4965"></path><path d="M463.437767 935.810984m-8.895262 0a8.895262 8.895262 0 1 0 17.790523 0 8.895262 8.895262 0 1 0-17.790523 0Z" fill="#FFFFFF" p-id="4966"></path><path d="M484.389858 129.155446c-79.57508 0-134.969518 34.723671-150.147727 97.87467a365.161203 365.161203 0 0 0 8.7479 185.96991 124.587247 124.587247 0 0 1 11.253042-68.174677 234.840263 234.840263 0 0 0-2.612313 41.328135s85.563306-20.510008 141.252466-62.414192L486.841414 129.155446z" fill="#5B3917" p-id="4967"></path><path d="M543.120019 262.570973a133.348544 133.348544 0 0 1 61.208509 61.262094 156.738795 156.738795 0 0 1 16.504461 89.153563 365.187995 365.187995 0 0 0 8.7479-185.969911C614.402679 163.879118 561.48659 129.14205 481.91151 129.14205v201.590204c29.298098-18.527329 53.934221-41.408514 61.208509-68.161281z" fill="#5B3917" p-id="4968"></path><path d="M422.082838 469.278631h119.67074s0.696617 52.031921-49.433004 57.202962c-66.419739 6.858997-70.237735-57.202962-70.237736-57.202962z" fill="#9E384C" p-id="4969"></path><path d="M420.689605 469.278631h122.417017s0.616238 16.075774-5.492556 17.696748-109.944897 0-109.944896 0a22.774013 22.774013 0 0 1-6.979565-17.696748z" fill="#FFFFFF" p-id="4970"></path><path d="M512.214344 512.830582a60.44491 60.44491 0 0 0-66.660876-0.72341l2.250609 4.300269a63.499307 63.499307 0 0 0 45.548025 10.074152 55.675763 55.675763 0 0 0 24.863864-8.279024 26.069547 26.069547 0 0 0-6.001622-5.371987z" fill="#BA5D73" p-id="4971"></path></svg>