<?xml version="1.0" standalone="no"?><!DOCTYPE svg PUBLIC "-//W3C//DTD SVG 1.1//EN" "http://www.w3.org/Graphics/SVG/1.1/DTD/svg11.dtd"><svg t="1590070886610" class="icon" viewBox="0 0 1024 1024" version="1.1" xmlns="http://www.w3.org/2000/svg" p-id="40449" xmlns:xlink="http://www.w3.org/1999/xlink" width="128" height="128"><defs><style type="text/css"></style></defs><path d="M1001.1648 229.2736L550.8096 7.8336c-21.2992-10.4448-56.32-10.4448-77.6192 0L22.8864 229.2736C8.3456 236.3904 0 247.808 0 260.5568l0.0512 0.5632v468.6848c0 25.4976 17.3568 53.504 40.2944 65.1776l432.8448 220.5696c11.0592 5.632 24.9344 8.448 38.8096 8.448s27.7504-2.816 38.8096-8.4992l432.7936-220.5184c22.9888-11.6736 40.2944-39.68 40.2944-65.1776V261.5296L1024 260.5568c0-12.8-8.3456-24.1664-22.8352-31.2832zM493.4144 984.3712c-1.024-0.4096-2.1504-0.768-3.1232-1.28l-432.8448-220.5696c-10.3936-5.2736-20.224-21.1456-20.224-32.7168V299.008l435.968 214.3232c5.9392 2.8672 12.8 4.9664 20.224 6.3488v464.6912z m-3.584-503.7568L42.24 260.608 489.8304 40.5504c10.8544-5.3248 33.4848-5.3248 44.3392 0l447.6416 220.0064-447.6416 220.0576c-10.8544 5.3248-33.4848 5.3248-44.3392 0z m496.896 249.1904c0 11.5712-9.8304 27.4432-20.224 32.768L533.7088 983.04c-0.9216 0.512-2.048 0.8704-3.072 1.2288V519.68c7.3216-1.3824 14.2336-3.4816 20.1728-6.3488l435.9168-214.3232v430.7968z" p-id="40450" fill="#8a8a8a"></path></svg>