<?xml version="1.0" standalone="no"?><!DOCTYPE svg PUBLIC "-//W3C//DTD SVG 1.1//EN" "http://www.w3.org/Graphics/SVG/1.1/DTD/svg11.dtd"><svg t="1590042746267" class="icon" viewBox="0 0 1028 1024" version="1.1" xmlns="http://www.w3.org/2000/svg" p-id="12364" xmlns:xlink="http://www.w3.org/1999/xlink" width="200.78125" height="200"><defs><style type="text/css"></style></defs><path d="M153.024 351.616c-1.504-9.92-2.496-18.72-3.328-25.856a185.632 185.632 0 0 1-0.992-21.536c0-22.848 3.296-38.08 9.6-45.248 6.464-7.104 15.424-10.752 27.008-10.752h198.336L448.448 0.16c40.288 2.816 67.104 8.32 80.864 16.256 13.76 7.936 20.544 17.568 20.544 28.992v15.072l-51.84 187.584h239.424L804.384 0c40.256 2.816 67.104 8.288 80.864 16.224 13.76 7.968 20.544 17.6 20.544 29.024 0 5.76-0.832 10.752-2.144 15.04l-49.728 187.776h170.336a80 80 0 0 1 4.32 24.832v22.72c0 21.536-3.328 36.288-9.792 44.224-6.464 7.968-15.392 11.776-27.008 11.776H825.92l-77.696 286.816h200.48c1.344 10.112 2.496 19.072 3.328 27.04 0.768 7.52 1.152 15.104 1.152 22.688 0 37.44-12.256 56-36.64 56h-196.48l-73.28 269.6c-40.256-2.816-66.912-8.288-79.84-16.064-12.928-7.968-19.392-17.6-19.392-29.184 0-5.632 0.64-10.08 2.144-12.928l56-211.264h-241.408l-71.104 269.6c-40.256-2.816-67.584-8.288-82.016-16.064-14.4-7.968-21.536-17.568-21.536-29.184 0-2.816 0.32-4.96 0.992-6.432a15.936 15.936 0 0 0 0.992-6.464l58.336-211.296H77.44a102.048 102.048 0 0 1-4.32-27.008v-22.688c0-21.536 3.296-36.288 9.76-44.256 6.464-7.936 15.424-11.744 27.008-11.744h168.192l75.392-286.848H153.024v-0.32z m239.264 286.816h241.408l77.728-286.816h-241.44l-77.696 286.816z" fill="#cdcdcd" fill-opacity=".45" p-id="12365"></path></svg>