<?xml version="1.0" standalone="no"?><!DOCTYPE svg PUBLIC "-//W3C//DTD SVG 1.1//EN" "http://www.w3.org/Graphics/SVG/1.1/DTD/svg11.dtd"><svg t="1590054898456" class="icon" viewBox="0 0 1024 1024" version="1.1" xmlns="http://www.w3.org/2000/svg" p-id="10201" xmlns:xlink="http://www.w3.org/1999/xlink" width="128" height="128"><defs><style type="text/css"></style></defs><path d="M10.427188 738.602801c3.199969 12.599876 7.199929 24.899756 11.999882 36.999637C62.726675 877.401439 151.325805 956.000667 253.024807 994.200292c126.998754 47.799531 271.497335 35.199655 394.796125-17.799825 65.099361-27.999725 124.898774-68.099332 175.198281-117.898843 52.499485-52.099489 95.499063-113.598885 128.198742-179.798235 66.19935-134.49868 98.199036-297.197083 48.699522-442.695655l-0.899992-2.699974c-22.39978-64.399368-62.899383-124.598777-116.898852-166.498366-90.899108-70.599307-228.297759-96.599052-324.696814-21.499789-36.299644 28.299722-59.999411 68.099332-80.299211 108.598934-22.599778 45.099557-45.799551 91.999097-77.899236 131.998705-35.899648 44.899559-85.099165 76.199252-137.198653 99.199026-89.099126 39.199615-182.498209 62.699385-233.39771 154.098488-33.399672 59.899412-34.899657 134.398681-18.199821 199.398043z m243.397611-314.396914c20.499799-20.699797 85.799158 9.399908 129.098733-49.499515 0 0 30.499701-46.699542 39.099616-57.599434 8.099921-10.299899 49.699512-35.199655 46.499544 23.699767 0 0-17.799825 176.898264-173.1983 139.098635 0 0-80.199213-16.699836-41.499593-55.699453z" fill="#aaaaaa" p-id="10202"></path></svg>