<?xml version="1.0" standalone="no"?><!DOCTYPE svg PUBLIC "-//W3C//DTD SVG 1.1//EN" "http://www.w3.org/Graphics/SVG/1.1/DTD/svg11.dtd"><svg t="1591800867139" class="icon" viewBox="0 0 1024 1024" version="1.1" xmlns="http://www.w3.org/2000/svg" p-id="3889" xmlns:xlink="http://www.w3.org/1999/xlink" width="200" height="200"><defs><style type="text/css"></style></defs><path d="M512 219.428571q-116.571429 0-218 39.714286T132.857143 366.285714 73.142857 512q0 64 40.857143 122T229.142857 734.285714l49.714286 28.571429-15.428572 54.857143q-13.714286 52-40 98.285714 86.857143-36 157.142858-97.714286l24.571428-21.714285 32.571429 3.428571q39.428571 4.571429 74.285714 4.571429 116.571429 0 218-39.714286t161.142857-107.142857T950.857143 512t-59.714286-145.714286-161.142857-107.142857T512 219.428571z m512 292.571429q0 99.428571-68.571429 183.714286t-186.285714 133.142857-257.142857 48.857143q-40 0-82.857143-4.571429-113.142857 100-262.857143 138.285714-28 8-65.142857 12.571429h-2.857143q-8.571429 0-15.428571-6t-9.142857-15.714286v-0.571428q-1.714286-2.285714-0.285715-6.857143t1.142858-5.714286 2.571428-5.428571l3.428572-5.142857 4-4.857143 4.571428-5.142857q4-4.571429 17.714286-19.714286t19.714286-21.714286 17.714285-22.571428 18.571429-29.142858 15.428571-33.714285 14.857143-43.428572q-89.714286-50.857143-141.428571-125.714285T0 512q0-99.428571 68.571429-183.714286t186.285714-133.142857T512 146.285714t257.142857 48.857143 186.285714 133.142857T1024 512z" p-id="3890" fill="#dbdbdb"></path></svg>