<?xml version="1.0" standalone="no"?><!DOCTYPE svg PUBLIC "-//W3C//DTD SVG 1.1//EN" "http://www.w3.org/Graphics/SVG/1.1/DTD/svg11.dtd"><svg t="1590633412384" class="icon" viewBox="0 0 1024 1024" version="1.1" xmlns="http://www.w3.org/2000/svg" p-id="2363" xmlns:xlink="http://www.w3.org/1999/xlink" width="200" height="200"><defs><style type="text/css"></style></defs><path d="M917.765 69.97c35.456 0.072 58.23 15.642 67.236 44.57 13.42 43.11-17.254 81.664-66.36 81.781-151.957 0.359-303.903 0.144-455.86 0.149-78.617 0-264.77 0.179-343.398-0.113-32.42-0.113-55.06-14.848-64.799-40.755-16.358-43.54 14.188-85.315 63.929-85.535 115.732-0.512 338.99-0.164 454.712-0.164 114.847-0.015 229.693-0.143 344.54 0.067zM917.765 817.49c35.456 0.072 58.23 15.642 67.236 44.57 13.42 43.11-17.254 81.658-66.36 81.781-151.957 0.359-303.903 0.139-455.86 0.149-78.617 0-264.77 0.179-343.398-0.118-32.42-0.108-55.06-14.848-64.799-40.75-16.358-43.54 14.188-85.32 63.929-85.54 115.732-0.512 338.99-0.159 454.712-0.159 114.847-0.015 229.693-0.143 344.54 0.067zM300.268 243.86h437.76V550.4h-437.76V243.86zM917.76 602.45c35.456 0.072 58.23 15.642 67.236 44.57 13.42 43.11-17.255 81.658-66.36 81.781-151.957 0.359-303.898 0.139-455.855 0.149-78.617 0-264.77 0.179-343.398-0.118-32.42-0.108-55.06-14.848-64.799-40.75-16.358-43.54 14.188-85.32 63.929-85.54 115.732-0.512 338.99-0.159 454.712-0.159 114.842-0.015 229.688-0.143 344.535 0.067z" fill="#e6e6e6" p-id="2364"></path></svg>