<?xml version="1.0" standalone="no"?><!DOCTYPE svg PUBLIC "-//W3C//DTD SVG 1.1//EN" "http://www.w3.org/Graphics/SVG/1.1/DTD/svg11.dtd"><svg t="1590050572276" class="icon" viewBox="0 0 1024 1024" version="1.1" xmlns="http://www.w3.org/2000/svg" p-id="11836" xmlns:xlink="http://www.w3.org/1999/xlink" width="200" height="200"><defs><style type="text/css"></style></defs><path d="M431.016 585.922c6.521 6.408 13.003 12.889 26.007 12.889 13.003 0 19.485-6.48 26.007-6.48l487.536-491.156c0-6.444 6.482-19.372 6.482-25.854 0-6.445-6.482-19.374-6.482-25.856-12.968 0-19.524-6.446-26.007-6.446-6.559 0-19.525 6.446-26.007 6.446L431.016 540.617c-13.005 12.892-13.005 32.337 0 45.305z" p-id="11837" fill="#cdcdcd"></path><path d="M948.704 320.916c-19.901 0-33.244 13.229-33.244 33.093v496.205c0 26.46-19.978 52.918-53.222 52.918H170.494c-33.281 0-53.22-26.458-53.22-52.918V162.121c0-33.094 19.939-52.955 53.22-52.955h472.232c19.976 0 33.244-13.231 33.244-33.055 0-19.863-13.269-33.093-33.244-33.093H137.213c-46.55 0-86.464 39.69-86.464 86.01v747.646c0 52.992 39.914 92.643 86.464 92.643H888.85c46.587 0 86.464-39.65 86.464-86.01V354.009c6.709-19.865-6.633-33.093-26.61-33.093z" p-id="11838" fill="#cdcdcd"></path></svg>