<?xml version="1.0" standalone="no"?><!DOCTYPE svg PUBLIC "-//W3C//DTD SVG 1.1//EN" "http://www.w3.org/Graphics/SVG/1.1/DTD/svg11.dtd"><svg t="1590632791287" class="icon" viewBox="0 0 1024 1024" version="1.1" xmlns="http://www.w3.org/2000/svg" p-id="2111" xmlns:xlink="http://www.w3.org/1999/xlink" width="200" height="200"><defs><style type="text/css"></style></defs><path d="M910.643 64.85c35.456 0.072 58.23 15.642 67.236 44.57 13.42 43.11-17.254 81.664-66.36 81.781-151.957 0.359-303.903 0.144-455.86 0.149-78.617 0-264.77 0.179-343.398-0.113-32.42-0.113-55.06-14.848-64.799-40.755-16.358-43.54 14.188-85.315 63.929-85.535 115.732-0.512 338.99-0.164 454.717-0.164 114.842-0.015 229.694-0.143 344.535 0.067zM910.643 812.37c35.456 0.072 58.23 15.642 67.236 44.57 13.42 43.11-17.254 81.658-66.36 81.781-151.957 0.359-303.903 0.139-455.86 0.149-78.617 0-264.77 0.179-343.398-0.118-32.42-0.108-55.06-14.848-64.799-40.75-16.358-43.54 14.188-85.32 63.929-85.54 115.732-0.512 338.99-0.159 454.717-0.159 114.842-0.015 229.694-0.143 344.535 0.067zM429.363 310.61c35.456 0.072 58.235 15.642 67.236 44.57 13.42 43.11-17.25 81.658-66.36 81.781-151.957 0.359-17.183 0.139-169.14 0.149-78.617 0-70.21 0.179-148.838-0.118-32.42-0.108-55.06-14.848-64.799-40.75-16.358-43.54 14.188-85.32 63.929-85.54 115.732-0.512 77.87-0.159 193.597-0.159 114.842-0.015 9.534-0.143 124.375 0.067zM532.541 233.62h437.76v526.7h-437.76v-526.7zM429.363 575.59c35.456 0.072 58.235 15.642 67.236 44.57 13.42 43.11-17.25 81.659-66.36 81.782-151.957 0.358-17.183 0.138-169.14 0.148-78.617 0-70.21 0.18-148.838-0.118-32.42-0.107-55.06-14.848-64.799-40.75-16.358-43.54 14.188-85.32 63.929-85.54 115.732-0.511 77.87-0.158 193.597-0.158 114.842-0.016 9.534-0.144 124.375 0.066z" fill="#00bd69" p-id="2112"></path></svg>