<?xml version="1.0" standalone="no"?><!DOCTYPE svg PUBLIC "-//W3C//DTD SVG 1.1//EN" "http://www.w3.org/Graphics/SVG/1.1/DTD/svg11.dtd"><svg t="1590632714049" class="icon" viewBox="0 0 1024 1024" version="1.1" xmlns="http://www.w3.org/2000/svg" p-id="1589" xmlns:xlink="http://www.w3.org/1999/xlink" width="200" height="200"><defs><style type="text/css"></style></defs><path d="M457.953 64.778c115.728 0 338.985-0.343 454.718 0.164 49.74 0.22 80.292 41.994 63.928 85.535-9.738 25.907-32.379 40.642-64.799 40.755-78.628 0.297-264.78 0.113-343.398 0.113-151.957-0.005-303.903 0.21-455.86-0.149-49.105-0.112-79.78-38.671-66.36-81.782 9.006-28.928 31.785-44.498 67.236-44.57 114.842-0.204 229.689-0.076 344.535-0.066zM457.953 812.298c115.728 0 338.985-0.348 454.718 0.159 49.74 0.22 80.292 42 63.928 85.54-9.738 25.902-32.379 40.642-64.799 40.75-78.628 0.302-264.78 0.118-343.398 0.118-151.957-0.01-303.903 0.21-455.86-0.149-49.105-0.118-79.78-38.671-66.36-81.782 9.006-28.928 31.785-44.498 67.236-44.57 114.842-0.204 229.689-0.076 344.535-0.066zM719.073 310.538c115.728 0 77.865-0.348 193.598 0.159 49.74 0.22 80.292 42 63.928 85.54-9.738 25.902-32.379 40.642-64.799 40.75-78.628 0.302-70.22 0.118-148.838 0.118-151.957-0.01-17.183 0.21-169.14-0.149-49.11-0.118-79.78-38.671-66.36-81.782 9.001-28.928 31.78-44.498 67.236-44.57 114.842-0.204 9.534-0.076 124.375-0.066zM53.76 233.62h437.76v526.7H53.76v-526.7zM719.073 575.519c115.728 0 77.865-0.348 193.598 0.158 49.74 0.22 80.292 42 63.928 85.54-9.738 25.902-32.379 40.643-64.799 40.75-78.628 0.302-70.22 0.118-148.838 0.118-151.957-0.01-17.183 0.21-169.14-0.148-49.11-0.118-79.78-38.672-66.36-81.782 9.001-28.928 31.78-44.498 67.236-44.57 114.842-0.205 9.534-0.077 124.375-0.066z" fill="#e6e6e6" p-id="1590"></path></svg>