<?xml version="1.0" standalone="no"?><!DOCTYPE svg PUBLIC "-//W3C//DTD SVG 1.1//EN" "http://www.w3.org/Graphics/SVG/1.1/DTD/svg11.dtd"><svg t="1590051255088" class="icon" viewBox="0 0 1024 1024" version="1.1" xmlns="http://www.w3.org/2000/svg" p-id="25693" width="64" height="64" xmlns:xlink="http://www.w3.org/1999/xlink"><defs><style type="text/css"></style></defs><path d="M494.592 0C332.699608 0 179.059451 76.840157 79.691294 203.856314l-23.552-15.36-5.12-1.024C35.659294 183.376314 20.279216 189.520314 14.135216 200.784314c-2.048 2.048-2.048 6.144-2.048 8.192H10.039216l13.312 118.844235v4.096c2.048 8.192 6.144 15.36 13.332078 19.456 6.144 4.096 15.36 4.096 23.552 2.048l108.584157-49.172078 4.096-2.048c4.096-2.048 6.144-6.144 8.192-8.192 6.164078-13.312 4.096-25.620078-4.096-35.860079v-2.048l-25.6-15.36c86.056157-106.536157 213.072314-166.992314 352.376471-161.852235 227.428392 8.192 416.948706 189.500235 428.212705 412.812549 13.332078 246.904471-188.476235 452.808784-437.408627 452.808784-149.584314 0-287.864471-74.792157-367.776627-195.664314-11.243922-17.408-32.768-23.572078-52.244079-15.36-21.504 10.24-30.72 37.888-17.408 57.364079C169.843451 962.94149 377.815843 1055.121569 591.912157 1014.161569c227.408314-42.004078 400.544627-231.504314 420.000627-459.956706C1037.512784 255.076392 795.768471 0 494.592 0z" p-id="25694" fill="#aaaaaa"></path><path d="M477.163922 856.405333v-59.432157c-34.816-4.075922-62.484078-12.267922-83.988079-22.528-21.524078-11.243922-39.956078-28.672-56.340078-52.244078-15.380078-24.576-24.596078-54.292078-27.668079-89.108078l69.672157-12.308079c5.099922 35.860078 15.36 62.504157 28.672 79.912157 19.476078 23.552 43.028078 37.908078 69.672157 39.956078V525.512784c-28.712157-5.12-57.384157-16.384-87.080157-31.744-21.524078-12.288-38.952157-28.692078-51.220078-50.196078-12.308078-21.524078-17.428078-45.076078-17.428079-72.744157 0-48.148078 17.428078-87.060078 52.244079-116.776157 23.572078-20.48 57.364078-31.764078 103.464157-36.884078v-50.196079h40.980078v50.196079c39.956078 4.096 71.720157 15.380078 95.272157 34.836078 29.716078 24.596078 48.148078 58.388078 54.292078 100.392157l-71.700078 10.24c-4.096-26.624-12.308078-47.124078-25.620079-60.436078-13.312-14.336-30.72-23.552-53.268078-27.668079v194.640314c34.836078 8.212078 57.364078 15.380078 68.628078 19.476078 21.524078 9.216 38.952157 20.48 52.264157 33.792a134.244392 134.244392 0 0 1 30.72 47.124079c7.168 18.452078 11.264 37.908078 11.264 59.432157 0 47.104-15.36 86.036078-46.100078 116.776156-30.72 30.72-69.652078 48.148078-117.800157 50.196079v60.436078h-38.932078z m0-582.876862c-26.624 4.096-48.148078 14.336-63.508079 31.744-15.36 17.408-23.552 36.884078-23.552 60.436078 0 22.548078 6.144 42.004078 19.456 57.364078 13.312 15.380078 35.860078 27.668078 66.580079 36.884079l1.024-186.448314z m40.980078 467.124705c26.644078-3.072 49.192157-14.356078 66.580078-33.812078 17.428078-19.476078 26.644078-44.052078 26.644079-72.724078 0-24.596078-6.144-44.052078-18.432-59.432157-12.308078-15.36-36.884078-27.648-73.768157-39.956079l-1.003922 205.924392z" p-id="25695" fill="#aaaaaa"></path></svg>