<svg class="icon" viewBox="0 0 1024 1024" version="1.1" xmlns="http://www.w3.org/2000/svg"
     width="200" height="200">
  <g>
    <path d="M511.8 104.1c-226 0-409.2 78.7-409.2 175.7s183.2 175.7 409.2 175.7S921 376.9 921 279.8 737.8 104.1 511.8 104.1z m0 309.2c-171.6 0-363.8-59.7-363.8-133.4s192.2-133.4 363.8-133.4 364.8 59.7 364.8 133.4-193.2 133.4-364.8 133.4zM875.9 752.1c-12.7 70.1-198.4 125.8-364.1 125.8s-350.4-55.7-363.1-125.8H103c9.3 93.5 188.8 168 408.8 168s399.5-74.6 408.8-168h-44.7z"
    ></path>
    <path d="M874.8 592.1c-20 67.9-201.1 121.1-363 121.1s-342.1-53.2-362-121.1h-46.2c14.8 91.3 191.9 163.3 408.2 163.3s393.4-72 408.2-163.3h-45.2z"
    ></path>
    <path d="M875.6 436.1c-15.4 69.3-199.4 124.1-363.8 124.1S164.4 505.5 149 436.1h-45.9c11.3 92.7 189.9 166.3 408.6 166.3S909 528.7 920.3 436.1h-44.7z"
    ></path>
    <path d="M125.8 434.6m-22.8 0a22.8 22.8 0 1 0 45.6 0 22.8 22.8 0 1 0-45.6 0Z"></path>
    <path d="M125.8 752.1m-22.8 0a22.8 22.8 0 1 0 45.6 0 22.8 22.8 0 1 0-45.6 0Z"></path>
    <path d="M126.5 586.8m-23.5 0a23.5 23.5 0 1 0 47 0 23.5 23.5 0 1 0-47 0Z"></path>
    <path d="M898.5 434.6m-22.8 0a22.8 22.8 0 1 0 45.6 0 22.8 22.8 0 1 0-45.6 0Z"></path>
    <path d="M898.5 752.1m-22.8 0a22.8 22.8 0 1 0 45.6 0 22.8 22.8 0 1 0-45.6 0Z"></path>
    <path d="M899.1 586.8m-23.5 0a23.5 23.5 0 1 0 47 0 23.5 23.5 0 1 0-47 0Z"></path>
    <path d="M574.6 227.7h-26.4l15.1-15.1c5.3-5.3 5.3-14 0-19.3-5.3-5.3-14-5.3-19.3 0l-31 31c-0.7 0.7-1.3 1.5-1.9 2.3-0.5-0.8-1.1-1.6-1.9-2.3l-31-31c-5.3-5.3-14-5.3-19.3 0s-5.3 14 0 19.3l15.1 15.1h-25.7c-7.5 0-13.7 6.1-13.7 13.7s6.1 13.7 13.7 13.7h49.5v37.4h-32.2c-7.5 0-13.7 6.1-13.7 13.7 0 7.5 6.1 13.7 13.7 13.7h32.2V358c0 7.5 6.1 13.7 13.7 13.7s13.7-6.1 13.7-13.7v-38.3h32.2c7.5 0 13.7-6.1 13.7-13.7 0-7.5-6.1-13.7-13.7-13.7h-32.2V255h49.5c7.5 0 13.7-6.1 13.7-13.7s-6.2-13.6-13.8-13.6z"
    ></path>
  </g>
</svg>