<svg class="icon" viewBox="0 0 1024 1024" version="1.1" xmlns="http://www.w3.org/2000/svg"
     width="200" height="200">
  <g>
    <path d="M512 0C229.229949 0 0.003471 229.226478 0.003471 511.996529s229.226478 512.003471 511.996529 512.003471c282.776994 0 511.989586-229.233421 511.989586-512.003471S794.776994 0 512 0z m264.176989 737.814047c-25.945582 25.112436-63.555221 47.239428-112.808087 66.346263-1.569093 0.604031-3.131244 1.117805-4.700337 1.707951v122.368448h-125.249747v-95.902148c-6.554089 0.326316-13.122063 0.499888-19.696981 0.499888a418.100875 418.100875 0 0 1-41.858688-2.138411v97.540671H346.620345v-135.400253c-0.249944-0.145801-0.506831-0.249944-0.756775-0.395745-47.718487-26.931473-83.578518-65.443687-107.580091-115.536644-24.001573-50.086013-35.998888-104.580762-35.998888-163.456474 0-63.902366 13.392836-120.688268 40.185451-170.364651 24.390375-45.212104 59.174257-80.718047 104.14336-106.746944V98.241903h125.242804v101.435632a454.828767 454.828767 0 0 1 61.555669-0.708175V98.23496h125.249747v131.401148c9.518703 4.978053 18.61389 10.365736 26.882873 16.537966 42.837635 31.958126 70.393968 76.11491 82.668999 132.48424l-123.062737 23.022625c-8.657785-30.139088-24.911092-53.925432-48.766864-71.372916-23.862715-17.433598-53.654659-26.160812-89.368888-26.160812-54.140661 0-97.186583 17.162826-129.137767 51.488477-31.958126 34.325651-47.926774 85.258697-47.926774 152.785252 0 72.830923 16.183878 127.457587 48.558577 163.879991 32.367756 36.415461 74.781875 54.626664 127.2493 54.626664 25.952525 0 51.967537-5.089139 78.065863-15.281303 26.091383-10.185221 48.482205-22.52968 67.186353-37.040321V596.741452H509.1187V493.354867h267.058289v244.45918z"
    ></path>
  </g>
</svg>