<?xml version="1.0" standalone="no"?><!DOCTYPE svg PUBLIC "-//W3C//DTD SVG 1.1//EN" "http://www.w3.org/Graphics/SVG/1.1/DTD/svg11.dtd"><svg t="1589976168379" class="icon" viewBox="0 0 1024 1024" version="1.1" xmlns="http://www.w3.org/2000/svg" p-id="2092" xmlns:xlink="http://www.w3.org/1999/xlink" width="200" height="200"><defs><style type="text/css"></style></defs><path d="M615.816042 485.446302a7.853243 7.853243 0 0 0-10.886 2.170815c-14.20607 21.420838-44.405939 22.570093-45.970203 22.570093h-0.734246c-37.191171 0-51.429165 31.764133-51.971868 33.041083a7.980938 7.980938 0 0 0 7.15092 11.077542 7.725548 7.725548 0 0 0 7.182844-4.724715c0.127695-0.287314 9.928287-22.12316 35.020356-23.527805v40.638936a28.220597 28.220597 0 0 1-12.51411 20.814286c-7.629777 5.331267-17.78153 8.044786-30.295641 8.044786-14.940316 0-27.167113-5.139724-36.169611-15.355325-9.194041-10.215601-13.791061-24.67706-13.791061-43.384379l0.127695-44.820948c0.734246-16.50458 5.139724-29.593318 13.663366-38.915054 9.194041-10.215601 21.229295-15.355325 36.169611-15.355325 12.514111 0 22.697788 2.713519 30.295641 8.044786s11.90756 12.641806 12.641805 22.12316v1.02156c0 5.458962 4.469325 9.928287 9.928287 9.928287s9.928287-4.469325 9.928287-9.928287v-1.02156a45.778661 45.778661 0 0 0-19.537336-33.871101c-11.620246-8.555566-26.081705-12.737577-43.639769-12.737577-20.814286 0-37.638104 6.89553-50.407605 20.526973-12.035255 12.769501-18.388081 29.593318-19.122327 50.279909 0 1.436569-0.127695 2.841214-0.127695 4.309707l0.127695 40.351622h-0.127695c0 22.825483 6.480522 41.085869 19.250022 54.685388s29.593318 20.526973 50.407605 20.526972c17.52614 0 32.019523-4.182012 43.671693-12.641805a46.289441 46.289441 0 0 0 19.122327-30.614879l0.415009-45.076338c13.056815-3.160451 30.870268-10.343296 42.107429-27.294808a7.342463 7.342463 0 0 0-1.915425-10.854075zM754.109736 23.733075h110.168869a8.938651 8.938651 0 0 0 0-17.813454h-110.168869a8.938651 8.938651 0 0 0 0 17.813454zM164.031102 23.733075h110.168869c4.884334 0 8.906727-3.990469 8.906726-8.906727S279.052381 5.919621 274.199971 5.919621H164.031102c-4.884334 0-8.906727 3.990469-8.906727 8.906727s3.862774 8.906727 8.906727 8.906727z m705.866083 71.509205a8.874803 8.874803 0 1 1 0 17.813453 8.874803 8.874803 0 1 1 0-17.813453z m-358.312194-27.997131a8.874803 8.874803 0 1 1 0.031924 17.78153 8.874803 8.874803 0 0 1-0.031924-17.78153z m-165.173493 37.063476h0.415009c33.456092 0 48.396408-20.973905 59.761264-40.479317 3.735079-6.480522 17.52614-27.997131 37.031552-33.583788 24.134357-7.023225 49.832977 4.182012 59.888959 26.145553a8.938651 8.938651 0 0 0 7.757472 5.139725h0.957712a9.034422 9.034422 0 0 0 7.757472-5.139725c10.055982-21.963541 35.754602-33.168778 59.888959-26.145553 19.537336 5.746275 33.328397 27.167113 37.031552 33.583788 11.364856 19.665031 26.273248 40.479318 60.176273 40.479317 20.399278 0 44.533634-15.22763 51.237622-44.405939 5.61858-24.134357-4.724715-45.970203-27.294808-56.983897a8.842879 8.842879 0 0 0-11.907559 3.990469 8.842879 8.842879 0 0 0 3.990469 11.907559c21.420838 10.630609 19.537336 29.465623 17.78153 37.031553-3.447765 14.940316-16.632275 30.742573-34.062644 30.742573-22.250855 0-32.913388-11.205237-44.820948-31.764133-5.87397-10.055982-22.250855-34.477652-47.374848-41.788192a68.636067 68.636067 0 0 0-73.073469 22.697788 68.699915 68.699915 0 0 0-73.073468-22.697788c-25.123993 7.310539-41.500878 31.764133-47.374848 41.788192-11.90756 20.526973-22.570093 31.764133-44.405939 31.764133h-0.287314a35.499212 35.499212 0 0 1-34.477652-26.432867c-1.691959-6.161284-5.331267-27.294808 18.80309-41.628573a8.842879 8.842879 0 0 0 3.032756-12.226797 8.747108 8.747108 0 0 0-12.131026-2.968909c-27.709817 16.50458-32.019523 42.650133-26.847875 61.580918a53.184971 53.184971 0 0 0 51.588783 39.361987z m165.428883 838.381578H512zM150.112346 95.24228a8.874803 8.874803 0 1 1 0 17.813453 8.938651 8.938651 0 1 1 0-17.813453zM125.116048 6.07924a8.874803 8.874803 0 1 1 0 17.813454 8.938651 8.938651 0 1 1 0-17.813454z m776.353728 0a8.874803 8.874803 0 1 1 0.031924 17.78153 8.874803 8.874803 0 0 1-0.031924-17.78153zM949.131938 576.620538a8.874803 8.874803 0 1 1 0 17.813454 8.874803 8.874803 0 1 1 0-17.813454z m-35.754603 203.673538a8.874803 8.874803 0 1 1 0.031924 17.78153 8.874803 8.874803 0 0 1-0.031924-17.78153z m-57.143516 25.411307a8.874803 8.874803 0 1 1 0 17.813454 8.874803 8.874803 0 1 1 0-17.813454zM327.863798 48.314364a24.006662 24.006662 0 1 0 24.038585-24.006661 23.91089 23.91089 0 0 0-24.006661 24.006661z m24.006661-6.352827c3.447765 0 6.288979 2.841214 6.28898 6.28898s-2.841214 6.288979-6.28898 6.288979-6.288979-2.841214-6.288979-6.288979a6.320903 6.320903 0 0 1 6.288979-6.28898z m323.100296 30.295641a24.006662 24.006662 0 1 0-23.974738-23.974738c0 13.216433 10.758304 23.974738 23.974738 23.974738z m0-30.295641c3.447765 0 6.288979 2.841214 6.288979 6.28898s-2.841214 6.288979-6.288979 6.288979-6.288979-2.841214-6.28898-6.288979c0-3.415841 2.841214-6.288979 6.28898-6.28898z m-139.123712 21.293143a8.747108 8.747108 0 0 0-5.139724 11.364856 9.002498 9.002498 0 0 0 11.364855 5.331267c1.436569-0.542704 35.882297-12.035255 62.315165 29.01869a8.938651 8.938651 0 0 0 7.438234 3.990469 8.140557 8.140557 0 0 0 4.724715-1.436569 8.810956 8.810956 0 0 0 2.713519-12.226797c-27.582122-42.650133-66.624871-42.235124-83.416764-36.041916z m-47.9814 0c-1.27695-0.415009-13.056815-4.59702-29.146385-2.170815-14.940316 2.170815-36.361154 10.630609-54.142684 38.340426a8.842879 8.842879 0 0 0 2.713519 12.226797 8.204404 8.204404 0 0 0 4.724715 1.436569c2.841214 0 5.746275-1.436569 7.438235-3.990469 26.273248-41.085869 60.7509-29.593318 62.315164-29.01869 4.59702 1.691959 9.609049-0.734246 11.364856-5.331267s-0.670399-9.800592-5.26742-11.492551z m408.592104 24.262052l43.256684-49.130655v70.774959a8.938651 8.938651 0 0 0 17.813453 0V14.954043a8.874803 8.874803 0 1 0-15.483019-5.905894l-58.739704 66.784489a8.779032 8.779032 0 0 0 0.861941 12.514111c3.447765 3.32007 9.034422 2.905061 12.354492-0.861941z m-820.025421 30.710649a8.938651 8.938651 0 0 0 8.906727-8.906727V38.481849L128.595737 87.612503a8.874803 8.874803 0 0 0 12.482187 0.893865 8.938651 8.938651 0 0 0 0.861942-12.514111L83.200162 9.080073a8.938651 8.938651 0 0 0-9.736745-2.458129 8.874803 8.874803 0 0 0-5.746275 8.332099v94.366611c0 4.85241 3.862774 8.906727 8.779032 8.906727z m626.982492 8.779032a8.842879 8.842879 0 0 0-4.341631 16.823817c14.078375 6.608217 26.847876 9.194041 38.340427 9.194041 21.963541 0 39.489681-9.609049 51.716478-19.665031 19.537336-16.089571 29.593318-36.361154 30.008327-37.191171a8.810956 8.810956 0 0 0-3.447765-11.492551c-9.066346-5.331267-24.67706-8.587489-48.524103 5.87397a139.762187 139.762187 0 0 0-22.697788 17.653835c-21.835846 19.250023-40.064309 18.80309-41.085869 18.80309z m52.993428-5.61858l0.415009-0.415009c6.767835-6.767835 25.826315-22.37855 40.766631-23.112797a110.998886 110.998886 0 0 1-19.537336 21.835847c-12.92912 10.630609-26.720181 15.802257-41.373183 15.48302a101.517532 101.517532 0 0 0 19.696955-13.791061zM212.267891 84.61167a8.779032 8.779032 0 0 0-3.415841 11.492551c0.415009 0.861941 10.470991 21.1016 30.008327 37.191171 12.226797 10.055982 29.593318 19.665031 51.716478 19.665032 11.620246 0 24.42167-2.585824 38.340427-9.194041a8.938651 8.938651 0 1 0-4.341631-16.951512c-0.734246 0-19.122328 0.542704-40.958174-18.675395a139.091788 139.091788 0 0 0-22.697787-17.621912c-23.847043-14.397612-39.617376-11.077542-48.683722-5.905894zM271.709918 121.387833c6.767835 6.033589 13.503747 10.470991 19.665031 13.791061-31.029887 0.287314-51.55686-23.40011-60.910519-37.318867 14.940316 0.734246 34.062644 16.376885 40.766632 23.112797 0.223466 0.127695 0.351161 0.287314 0.478856 0.415009z m687.89301 721.636416a72.179604 72.179604 0 0 0-27.709816-14.206069c3.447765-2.585824 6.767835-5.61858 9.609049-8.906727 21.963541-25.826315 22.12316-63.879428 0.287314-88.620336a8.810956 8.810956 0 0 0-12.514111-0.734246 8.810956 8.810956 0 0 0-0.734246 12.51411c15.961876 18.100767 15.674562 46.097898-0.542704 65.347921-13.18451 15.48302-38.340426 19.250023-45.810584 20.08004-22.570093 2.426205-47.853704 7.629777-61.453223 38.468121a42.873599 42.873599 0 0 0-3.735079 15.802258 32.657998 32.657998 0 0 0-42.650133 31.029887c0 12.354492 6.89553 23.112797 17.079207 28.571758-3.032756 2.713519-5.87397 5.746275-8.459794 9.19404a163.736925 163.736925 0 0 0-154.095952-64.613674 400.675013 400.675013 0 0 0 236.235766-196.618389 379.318023 379.318023 0 0 0 43.256684-176.761816v-1.149255-0.287313-0.415009c-0.287314-50.407605-11.492551-95.771256-27.422503-134.845929 5.87397 1.149255 11.492551 1.564264 16.50458 1.564264 37.191171 0 53.536132-25.570925 55.291939-28.571758 8.044786-13.503747 9.321736-29.880632 4.724715-44.66133 0.127695-0.415009 0.127695-1.02156 0.127695-1.564263V141.755187a8.938651 8.938651 0 0 0-17.813454 0v135.995184c-15.068011-13.056815-36.903857-14.525307-45.970203-14.525308-17.52614 0.127695-28.444063-2.585824-36.488848-16.376884a25.251688 25.251688 0 0 1 3.862774-30.614879c8.459794-8.587489 20.526973-9.736744 32.306837-3.32007a8.874803 8.874803 0 0 0 8.587489-15.48302c-18.675395-10.343296-39.617376-7.757472-53.536132 6.288979a42.809752 42.809752 0 0 0-6.608217 51.844174c12.769501 21.963541 32.179142 25.123993 51.237622 25.123993h0.734247c5.746275 0 24.262052 0.861941 34.892661 10.885999 13.791061 13.056815 17.366521 33.583787 8.332099 48.811417 0 0-0.127695 0.127695-0.127695 0.287314-0.734246 1.27695-17.78153 30.295641-65.475616 15.068011a445.879046 445.879046 0 0 0-46.512907-76.968166l-7.055149 5.395114 7.023226-5.458962-2.841214-3.735079c-30.614878-51.237622 4.724715-105.859162 23.112796-128.971958l10.343296-11.779865a8.938651 8.938651 0 0 0-0.861941-12.514111 8.842879 8.842879 0 0 0-12.035255 0.415009 113.967795 113.967795 0 0 0-4.309706 4.59702c-15.961876 16.217266-78.27704 73.68002-138.708703 43.671693l-1.691959-1.149255-0.861941-0.542704c-54.142684-29.146386-107.551121-45.970203-158.565277-50.279909-6.608217-15.068011-15.355325-26.560562-26.432867-26.560562-11.205237 0-19.952345 11.620246-26.720181 26.975571-71.38151 3.160451-160.129541 49.25835-163.864619 51.109927-60.782824 30.646802-123.385302-27.103266-139.347178-43.320532-2.426205-2.713519-4.182012-4.309707-4.309707-4.59702a8.810956 8.810956 0 0 0-12.035254-0.415009 8.906727 8.906727 0 0 0-0.861941 12.514111l11.077542 12.514111c6.416674 8.012862 14.589155 19.633108 21.484685 33.551863 17.238826 34.892661 17.52614 66.624871 1.02156 94.494306a374.625231 374.625231 0 0 0-49.960672 80.735169c-48.109094 15.674562-65.347921-13.663366-66.050243-14.940315 0-0.127695-0.127695-0.127695-0.127695-0.287314-9.066346-15.22763-5.490885-35.754602 8.300175-48.811417 10.630609-10.055982 29.146386-10.885999 34.892661-10.886h0.127695c19.250023 0 39.074673-3.032756 51.844174-25.123993a42.777828 42.777828 0 0 0-6.608217-51.876097c-13.918756-14.20607-34.892661-16.632275-53.536132-6.288979a8.715184 8.715184 0 0 0-3.447766 12.035255 8.747108 8.747108 0 0 0 12.035255 3.447765c11.90756-6.480522 23.974738-5.331267 32.306837 3.32007a25.251688 25.251688 0 0 1 3.862774 30.551031c-7.885167 13.663366-18.643471 16.376885-35.882297 16.376885h-0.542704c-7.917091 0-26.273248 1.149255-40.958174 10.630609V143.862154a8.938651 8.938651 0 0 0-17.813454 0v149.371236c-9.800592 17.494216-10.343296 38.915054-0.287313 56.15388 0.989636 1.883501 7.15092 12.226797 20.941981 19.952345 7.917091 4.437402 19.250023 8.587489 34.349957 8.58749 5.458962 0 11.492551-0.542704 17.973073-1.883502-15.48302 41.628573-23.272415 86.449521-23.527806 135.260938V512.868805c0 88.205327 31.029887 174.782543 87.311462 243.865542a402.750057 402.750057 0 0 0 192.723692 129.706205 167.18469 167.18469 0 0 0-23.974738-1.691959 163.289992 163.289992 0 0 0-130.663917 65.220226 59.058941 59.058941 0 0 0-8.172481-8.779032c9.481354-5.746275 15.961876-16.089571 15.961876-27.997131a32.657998 32.657998 0 0 0-42.075505-31.157582 49.034883 49.034883 0 0 0-3.735079-15.674562c-13.791061-30.870268-38.915054-36.041916-61.453223-38.468121-7.438234-0.861941-32.594151-4.59702-45.810584-20.08004-16.632275-18.80309-16.951512-46.832144-1.02156-64.900988a8.874803 8.874803 0 0 0-13.248357-11.779865c-21.676228 24.67706-21.548533 62.730173 0.287313 88.620336 2.841214 3.447765 6.161284 6.288979 9.60905 8.906727a73.775791 73.775791 0 0 0-27.709817 14.20607c-21.1016 17.366521-31.891828 46.385212-32.179142 85.906816a9.002498 9.002498 0 0 0 3.990469 9.321736 8.938651 8.938651 0 0 0 4.59702 1.27695c0.542704 0 1.27695-0.127695 1.883501-0.287314h0.127695c0.287314 0 0.415009-0.127695 0.734247-0.287313 0.415009-0.127695 1.02156-0.287314 1.436569-0.542704 0.127695 0 0.127695-0.127695 0.287313-0.127695a10.279448 10.279448 0 0 0 3.575461-3.447765c3.447765-4.469325 17.653835-10.055982 29.465623-12.514111 46.097898-10.055982 55.706947-41.213564 54.270378-56.15388a8.842879 8.842879 0 1 0-17.653835 1.564264c0 0.127695 0.127695 2.713519-0.734246 6.608216-2.170815 8.906727-10.055982 24.262052-39.617376 30.742574h-0.287314a117.766722 117.766722 0 0 0-23.40011 7.629776c2.585824-25.570925 10.758304-44.214397 24.67706-55.834642 21.420838-17.78153 49.673358-12.769501 49.960672-12.641806a9.640973 9.640973 0 0 0 2.713519 0c4.724715 1.02156 8.779032 1.564264 11.779865 1.883501 23.719348 2.585824 38.180808 7.757472 47.247153 27.997131 7.023225 15.961876-2.011196 34.318034-14.20607 43.512074-6.161284 4.724715-22.697788 14.078375-41.213564-1.149255a8.906727 8.906727 0 0 0-11.364856 13.663366c8.332099 6.89553 17.653835 10.885999 27.294808 12.035255a108.381138 108.381138 0 0 0-24.42167 29.27408c-12.035255 20.814286-21.835846 32.019523-38.053112 32.179142v-62.187469a8.938651 8.938651 0 0 0-17.813454 0v72.115756c0 3.57546 2.170815 6.608217 5.139724 8.044786a9.385583 9.385583 0 0 0 5.458962 2.011196h206.770142a8.938651 8.938651 0 0 0 7.438234-3.990469 9.257888 9.257888 0 0 0 2.585824-4.309706 71.700747 71.700747 0 0 1 69.498008-53.85537c29.274081 0 55.291939 17.78153 66.369481 44.405939h-18.898861a51.205698 51.205698 0 0 0-47.534467-31.891828c-23.112797 0-43.512074 15.674562-49.673358 37.925417a8.938651 8.938651 0 0 0 6.161284 10.886 8.938651 8.938651 0 0 0 10.885999-6.161284 33.679558 33.679558 0 1 1 59.888959-10.790229h-5.203571a8.938651 8.938651 0 0 0 0 17.813454h17.973072c0.287314-0.031924 0.734246 0.095771 1.02156 0.095771 0.415009 0 0.861941 0 1.149255-0.127695h35.626908a8.938651 8.938651 0 0 0 8.906726-8.906727c0-0.415009 0-0.861941-0.127695-1.27695a12.386416 12.386416 0 0 0-0.127695-3.735079 89.609972 89.609972 0 0 0-171.749786-3.862774H232.76294c3.735079-11.90756 8.779032-22.985102 15.068011-33.328397 0.415009-0.542704 0.734246-1.149255 1.149255-1.691959a146.178861 146.178861 0 0 1 123.225683-67.646431 145.253072 145.253072 0 0 1 83.736002 26.432867c0.734246 0.415009 1.436569 0.861941 2.170815 1.02156 3.735079 4.469325 7.438234 9.194041 11.077542 14.078375 0.861941 1.149255 1.564264 2.29851 2.426206 3.447765-0.861941 18.228462 9.066346 37.318866 29.593318 56.856203 0.734246 2.170815 1.436569 3.990469 1.883501 5.458961v1.883502a8.938651 8.938651 0 0 0 8.906727 8.906727 8.619413 8.619413 0 0 0 8.459794-6.608217c0-0.127695 1.27695-4.469325 3.862774-11.620246 18.515776-18.100767 27.709817-35.754602 27.582122-52.865733 1.149255-1.691959 2.426205-3.57546 3.735079-5.331267 3.990469-5.458962 8.172481-10.758304 12.514111-15.802257a144.391131 144.391131 0 0 1 82.87406-25.826316 145.57231 145.57231 0 0 1 139.315255 102.666787h-46.385212a89.386506 89.386506 0 0 0-85.300266-62.187469 89.801515 89.801515 0 0 0-86.449521 66.050243 7.629777 7.629777 0 0 0 0 4.309707v0.734246a8.938651 8.938651 0 0 0 8.906727 8.906727h77.862032a8.938651 8.938651 0 0 0 0-17.813454h-28.316368a33.711482 33.711482 0 0 1 60.016654 11.205237 8.810956 8.810956 0 0 0 10.758304 6.320903 8.938651 8.938651 0 0 0 6.480522-10.758305 51.461088 51.461088 0 0 0-49.832977-38.659663c-20.973905 0-39.617376 12.769501-47.534467 31.891828h-17.973073a71.796519 71.796519 0 0 1 135.867489 9.449431c0.127695 0.734246 0.542704 1.436569 0.861942 2.170815 1.149255 3.57546 4.469325 6.161284 8.459794 6.161284h210.696764a8.938651 8.938651 0 0 0 8.906727-8.906727v-0.542704-2.234662c0.127695-0.861941 0.127695-1.691959 0.127695-2.585824 0-0.127695 0-0.287314-0.127695-0.415009v-67.327193a8.938651 8.938651 0 0 0-17.813454 0v60.303968c-14.940316-1.149255-24.262052-12.226797-35.754602-32.019524a113.32932 113.32932 0 0 0-22.985102-27.99713c7.917091-1.691959 15.48302-5.458962 22.570093-11.364856a8.906727 8.906727 0 0 0-11.364856-13.663366c-18.388081 15.22763-34.892661 5.87397-41.213564 1.149255-12.226797-9.194041-21.229295-27.709817-14.20607-43.512074 9.066346-20.271583 23.527805-25.570925 47.247154-27.997131 3.032756-0.287314 7.023225-0.861941 11.779864-1.883501a10.566762 10.566762 0 0 0 2.841214 0c0.287314 0 28.316368-5.139724 49.832977 12.641806 14.078375 11.620246 22.37855 30.295641 24.868603 56.026185a118.9479 118.9479 0 0 0-23.527805-7.757472H949.355404c-29.465623-6.480522-37.510409-21.676228-39.617376-30.614878a20.654668 20.654668 0 0 1-0.734247-6.608217 8.842879 8.842879 0 1 0-17.653835-1.564264c-1.436569 15.068011 8.172481 46.097898 54.429998 56.15388 11.90756 2.585824 26.975571 8.459794 29.721013 12.92912 0 0 0 0.127695 0.127695 0.127695 0.415009 0.542704 0.861941 1.149255 1.27695 1.564264 0.127695 0.127695 0.287314 0.127695 0.415009 0.287313 0.415009 0.287314 0.861941 0.734246 1.27695 0.861942 0.127695 0.127695 0.415009 0.287314 0.542704 0.287313 0.415009 0.287314 0.861941 0.415009 1.27695 0.542704l0.542704 0.127695a8.938651 8.938651 0 0 0 2.011196 0.287314c0.542704 0 1.02156 0 1.564264-0.127695 0.127695 0 0.287314 0 0.415009-0.127695 0.415009-0.127695 0.861941-0.287314 1.436568-0.415009h0.127695c0.415009-0.127695 0.734246-0.415009 1.149255-0.542704l0.127695-0.127695c0.287314-0.127695 0.542704-0.415009 0.734247-0.542703 0.127695-0.127695 0.415009-0.287314 0.542704-0.542704l0.542703-0.542704c0.127695-0.287314 0.415009-0.415009 0.542704-0.734246s0.287314-0.415009 0.415009-0.734247 0.287314-0.415009 0.415009-0.734246 0.127695-0.542704 0.287313-0.861941c0.127695-0.287314 0.127695-0.542704 0.287314-0.861942 0-0.287314 0.127695-0.542704 0.127695-0.734246 0-0.287314 0.127695-0.542704 0.127695-1.02156v-0.351161c-0.031924-40.607013-10.949847-70.072636-32.338761-87.726471zM214.438707 1005.4523H120.96596c7.917091-8.044786 13.503747-17.653835 17.78153-25.123993 3.735079-6.480522 17.52614-27.997131 37.031553-33.583787 22.985102-6.767835 44.533634 1.149255 55.164243 19.377717-7.023225 12.16295-12.641806 25.411307-16.504579 39.330063z m2.426205-77.127785a14.812621 14.812621 0 1 1 0-29.593318 14.812621 14.812621 0 0 1 0 29.593318z m526.48652-112.148141l1.27695 1.564264z m0.287313-8.906727c-83.863697-9.736744-144.454978 26.273248-180.656513 58.133153a286.675294 286.675294 0 0 0-37.318866 40.064308c-1.691959-1.149255-3.32007-2.29851-4.724715-3.032756v-25.283612c67.933744-68.221058 135.45248-88.620336 180.20958-93.632365a231.702593 231.702593 0 0 1 68.06144 2.170815c-8.204404 7.661701-16.696122 14.812621-25.570926 21.580457z m105.252611-125.204956c-8.587489 16.50458-18.515776 32.306837-29.465623 47.534467a203.25853 203.25853 0 0 0-42.650133-8.459794 338.327925 338.327925 0 0 0 69.944941-166.610063 107.583045 107.583045 0 0 0 42.522438-15.227629 361.217255 361.217255 0 0 1-40.351623 142.763019z m-60.431663-160.257235l10.343296-0.415009c3.447765 15.355325 15.068011 27.709817 30.295641 31.891828a318.599046 318.599046 0 0 1-74.414266 166.865452c-19.665031 0-42.522438 2.29851-68.348754 7.917091a276.363922 276.363922 0 0 0 102.124083-206.227439z m-168.780877 226.850182c-5.746275 2.29851-9.736744 4.182012-11.779865 5.012029a257.401213 257.401213 0 0 1-76.106225 17.653835l238.246962-238.246962c-7.15092 95.930875-66.912184 177.240672-150.328948 215.549174z m270.426104-236.491156c-0.287314 8.044786-22.250855 21.1016-41.628573 24.262052a54.206531 54.206531 0 0 1-8.044785 0.734246 25.123993 25.123993 0 0 1 0-50.247986c2.585824 0 5.331267 0.287314 8.044785 0.734247 19.377718 3.160451 41.213564 16.217266 41.628573 24.134356v0.383085zM806.97547 284.965139l3.735079 5.012029c32.594151 43.512074 70.774958 110.871191 78.117421 194.734888a106.976493 106.976493 0 0 0-42.107429-15.068011 336.795585 336.795585 0 0 0-89.354582-188.988613 31.923752 31.923752 0 0 0-2.170815-31.572591l40.766631-46.512907c-7.693624 29.529471-3.958545 57.558525 10.981771 82.395205z m-119.043672-100.655591l1.883501 1.27695 0.989637 0.606552c14.20607 7.182844 29.465623 10.758304 45.235956 10.758304 16.632275 0 34.062644-3.990469 51.55686-12.035255l-45.970203 52.386878a32.562227 32.562227 0 0 0-31.157582 1.979272 335.199397 335.199397 0 0 0-157.096784-62.187469 292.485417 292.485417 0 0 0-8.58749-40.064309c46.097898 5.139724 94.206992 20.973905 143.178029 47.247153z m54.845006 82.554823a15.036087 15.036087 0 0 1-14.812621 14.812621h-1.436569a14.621078 14.621078 0 0 1-13.056814-11.907559c-0.127695-0.861941-0.287314-1.883501-0.287314-2.713519a14.780697 14.780697 0 0 1 13.791061-14.748774h1.883501a14.97224 14.97224 0 0 1 13.663366 11.492551c0.127695 0.861941 0.287314 1.564264 0.287314 2.426205-0.159619 0.095771 0 0.383085 0 0.670399z m-188.733222-71.668823a318.088266 318.088266 0 0 1 144.64652 57.590448 32.49838 32.49838 0 0 0 1.819654 31.73221l-71.509205 81.565187a8.779032 8.779032 0 0 0 0.861942 12.514111 8.970574 8.970574 0 0 0 12.641806-0.861942l71.381509-81.437491a31.796057 31.796057 0 0 0 31.859905-2.011197 319.014055 319.014055 0 0 1 83.416764 176.634121 42.841675 42.841675 0 0 0-30.423336 32.721846l-10.2156 0.415008a276.17238 276.17238 0 0 0-71.924214-176.953358 8.874803 8.874803 0 0 0-13.056814 11.971407 258.358926 258.358926 0 0 1 66.784489 154.510961L674.811136 398.358306a8.874803 8.874803 0 0 0-12.514111 12.514111l102.539092 102.539092-252.740346 252.740345-252.740345-252.740345 101.67715-101.677151a8.874803 8.874803 0 0 0-12.514111-12.514111l-94.27084 94.334688a258.071612 258.071612 0 0 1 79.011287-166.865452l44.533634 50.822613a8.747108 8.747108 0 0 0 6.767836 3.032756 9.257888 9.257888 0 0 0 5.87397-2.170815 8.938651 8.938651 0 0 0 0.861941-12.514111l-44.693253-50.950308a257.62468 257.62468 0 0 1 145.923471-59.47395l-75.818911 75.116589a8.874803 8.874803 0 1 0 12.577958 12.51411l83.28907-82.459051 80.862864 80.862864a8.874803 8.874803 0 0 0 12.51411-12.514111L532.431201 255.435668a256.762738 256.762738 0 0 1 126.673449 44.661329c3.990469 2.713519 9.609049 1.691959 12.354492-2.29851s1.691959-9.609049-2.29851-12.354492a273.873869 273.873869 0 0 0-147.61543-48.268713v-6.352827c16.600351-3.990469 29.976403-18.228462 32.530303-35.754602zM294.567324 301.916651c5.012029 0 9.736744-1.149255 13.918756-3.160452l12.769501 14.653003a276.044685 276.044685 0 0 0-85.587579 190.552876l-7.182845-0.415009a42.841675 42.841675 0 0 0-33.328397-33.456092 319.109826 319.109826 0 0 1 81.118254-173.633288c5.36319 3.447765 11.524475 5.458962 18.29231 5.458962z m-14.812621-32.434532c0-0.734246 0-1.27695 0.127695-2.011197 0-0.415009 0.127695-0.734246 0.127695-1.149255a14.684926 14.684926 0 0 1 13.376053-11.620245h1.02156a14.71685 14.71685 0 0 1 1.085407 29.401775h-1.149255a14.812621 14.812621 0 0 1-14.621078-14.653002z m-51.397241 251.84648l7.31054 0.415009a276.076608 276.076608 0 0 0 102.411396 206.514752 327.729239 327.729239 0 0 0-68.66799-8.17248 319.333292 319.333292 0 0 1-74.222724-166.16313 42.841675 42.841675 0 0 0 33.168778-32.594151z m25.698621 11.779865l238.246962 238.246962a259.15702 259.15702 0 0 1-238.246962-238.246962z m233.681865-357.577948c3.862774-26.847876 17.079207-62.730173 23.974738-65.635234 7.917091 3.032756 20.08004 40.223928 23.847043 65.475616 0.734246 5.075877 1.149255 9.672897 1.149255 13.407975a25.155917 25.155917 0 0 1-25.092069 24.996298 25.092069 25.092069 0 0 1-25.092069-24.996298c0.127695-3.926622 0.542704-8.332099 1.27695-13.248357z m15.48302 55.291939v6.161284a275.565828 275.565828 0 0 0-168.589335 64.485979l-12.641806-14.525307a32.211066 32.211066 0 0 0 1.596188-32.721846 318.790589 318.790589 0 0 1 146.051166-59.027017 42.298972 42.298972 0 0 0 33.615711 35.626907zM283.936715 196.951354a100.240582 100.240582 0 0 0 45.363652-10.758304c0.861941-0.415009 82.87406-43.065142 149.179693-48.811417a281.886731 281.886731 0 0 0-8.587489 39.936613 335.64633 335.64633 0 0 0-158.980286 64.007123 31.9876 31.9876 0 0 0-30.263717-1.27695L232.379855 185.043794c17.653835 7.885167 34.892661 11.90756 51.55686 11.90756zM212.267891 285.82708l0.734247-1.02156c14.940316-24.67706 18.675395-52.865733 11.205237-82.459052l43.065141 49.25835a32.721846 32.721846 0 0 0-2.426205 31.093734 336.763661 336.763661 0 0 0-87.598776 187.296654c-12.769501 2.011196-29.721013 7.438234-42.522437 15.674562 5.075877-75.850835 30.487183-141.486069 77.542793-199.810764zM134.022775 511.879169c0.287314-8.332099 23.40011-19.82465 41.628573-23.527806 3.990469-0.861941 7.757472-1.27695 10.885999-1.27695a25.18784 25.18784 0 0 1 25.123993 25.155917 25.18784 25.18784 0 0 1-25.123993 25.155917c-3.32007 0-7.023225-0.415009-10.885999-1.276951-18.228462-3.862774-41.373183-15.355325-41.628573-23.719347v-0.51078z m0.861941 26.432866c12.769501 8.332099 29.880632 13.791061 42.522438 15.802258a336.125186 336.125186 0 0 0 69.944941 166.865452 204.567404 204.567404 0 0 0-42.777828 8.332099A363.228452 363.228452 0 0 1 134.884716 538.312035z m82.427128 207.632084l-1.27695-1.564264c43.256684-11.90756 90.503837-5.61858 123.640692 2.29851 40.064309 9.609049 69.370313 23.527805 69.625703 23.719348l0.127695-0.287314a276.778931 276.778931 0 0 0 204.663175 0.127695l0.861942-0.415008c3.735079-1.564264 7.629777-3.160451 11.205237-4.884334a396.684544 396.684544 0 0 1 57.462753-18.388082c33.456092-8.044786 80.862864-14.333765 124.087625-2.29851-7.438234 9.194041-15.22763 17.973072-23.527805 26.432867-12.035255-3.32007-42.777828-9.609049-84.278706-5.139724-45.076338 4.884334-111.445819 24.134357-179.251868 86.736834v-15.674562a8.938651 8.938651 0 0 0-17.813454 0v14.812621c-67.327193-61.900155-133.40936-80.990559-178.230308-85.906817-42.522438-4.59702-73.68002 2.29851-85.012952 5.458962a387.522427 387.522427 0 0 1-22.314703-24.996298z m37.765799 39.936614a227.137496 227.137496 0 0 1 68.923381-2.29851c79.713609 8.906727 140.879518 54.429997 179.251868 92.610805v26.017858c-1.27695 0.734246-2.713519 1.564264-4.309707 2.713519a292.166179 292.166179 0 0 0-36.903857-39.330063c-36.169611-32.019523-97.08013-68.221058-181.231141-58.133153v0.127695a364.760792 364.760792 0 0 1-25.69862-21.708151z m223.051256 140.751823a228.159056 228.159056 0 0 0-53.536132-49.960672l0.127695-0.415009c-0.415009-0.127695-0.861941-0.287314-1.27695-0.287314a213.122969 213.122969 0 0 0-86.034512-32.306837c-11.620246-6.033589-23.112797-12.769501-34.190339-20.08004 54.142684-1.564264 103.273338 16.823817 146.625794 54.87693 14.940316 13.056815 26.720181 26.560562 35.626907 38.180808a52.674191 52.674191 0 0 0-7.374387 10.055982z m42.905523 53.85537c-2.170815 2.585824-4.469325 5.139724-7.023226 7.757472a29.944479 29.944479 0 0 1-2.011196 1.883501l-0.25539 0.25539v-0.287314c-0.287314-0.287314-0.734246-0.542704-1.02156-1.02156a105.029144 105.029144 0 0 1-7.629777-8.17248c-10.470991-12.514111-15.068011-24.134357-13.503747-34.733043a34.158415 34.158415 0 0 1 6.416674-14.621078c2.170815-2.841214 4.59702-5.331267 7.023226-7.438234 2.170815-1.883501 4.309707-3.447765 6.161284-4.724716 0.861941-0.542704 1.564264-1.02156 2.29851-1.436569 0 0 0.127695 0 0.127695-0.127695h0.127695c1.02156 0.542704 2.011196 1.27695 3.32007 2.170816 1.691959 1.149255 3.735079 2.713519 5.746276 4.469325 2.585824 2.29851 5.139724 5.012029 7.310539 8.044785 2.585824 3.735079 4.724715 7.917091 5.61858 12.641806 0 0.287314 0.127695 0.734246 0.287314 1.02156 1.628111 10.375219-2.841214 21.86777-13.056815 34.381881z m35.05228-64.805217c-0.287314 0.287314-0.542704 0.542704-0.734247 0.861941a190.07402 190.07402 0 0 0-9.066345 11.077542 70.040712 70.040712 0 0 0-7.182844-10.2156 273.043852 273.043852 0 0 1 36.169611-38.915054c43.065142-37.925418 92.068101-56.313499 145.795776-55.004625-11.205237 7.310539-22.697788 14.20607-34.477653 20.271583-61.453223 9.321736-103.528728 41.213564-130.504298 71.924213z m250.601454-16.919589a14.812621 14.812621 0 1 1 0 29.593319 14.812621 14.812621 0 0 1 0-29.593319z m44.820948 46.097899c19.537336 5.746275 33.328397 27.167113 37.031552 33.583787 4.59702 8.044786 10.758304 18.675395 19.82465 26.97557h-99.250945a165.492731 165.492731 0 0 0-15.802257-38.053112c10.949847-19.505413 35.339594-29.242157 58.197-22.506245zM94.820407 321.007055a26.432867 26.432867 0 1 0 52.897658 0 26.432867 26.432867 0 0 0-52.897658 0z m35.020356 0c0 4.724715-3.862774 8.587489-8.587489 8.587489s-8.587489-3.862774-8.587489-8.587489 3.862774-8.587489 8.587489-8.58749a8.619413 8.619413 0 0 1 8.587489 8.58749z m796.625311 0a26.432867 26.432867 0 1 0-52.897658 0 26.432867 26.432867 0 0 0 52.897658 0z m-35.05228 0c0-4.724715 3.862774-8.587489 8.587489-8.58749s8.587489 3.862774 8.58749 8.58749-3.862774 8.587489-8.58749 8.587489a8.395947 8.395947 0 0 1-8.587489-8.587489z m60.463586 65.762929a9.162117 9.162117 0 0 0-9.736744 2.011196c-11.620246 11.90756-30.742573 11.492551-31.029887 11.492551h-0.287314a9.002498 9.002498 0 0 0-8.906727 8.459795 8.810956 8.810956 0 0 0 8.459795 9.19404c0.861941 0 14.940316 0.415009 29.27408-6.161284v144.901911a8.938651 8.938651 0 0 0 17.813454 0V394.974388a9.034422 9.034422 0 0 0-5.586657-8.17248zM74.868062 565.606843a8.938651 8.938651 0 0 0 8.906727-8.906726v-144.933835c14.333765 6.608217 28.444063 6.161284 29.274081 6.161284a8.715184 8.715184 0 0 0 8.459794-9.19404 8.779032 8.779032 0 0 0-9.19404-8.459795c-0.127695 0-19.377718 0.415009-31.029888-11.492551a9.130193 9.130193 0 0 0-9.736744-2.011196 8.747108 8.747108 0 0 0-5.458962 8.172481v161.821499a8.619413 8.619413 0 0 0 8.779032 8.810956z m884.032544 147.743125a8.938651 8.938651 0 0 0-8.906727-8.906727h-57.462754a8.938651 8.938651 0 0 0 0 17.813454h57.462754a8.842879 8.842879 0 0 0 8.906727-8.906727z m-59.601645 34.03072a8.938651 8.938651 0 0 0 0-17.813454h-22.123161a8.938651 8.938651 0 0 0 0 17.813454z m21.548532 16.408809a8.938651 8.938651 0 0 0-8.906727-8.906727h-54.876929a8.938651 8.938651 0 0 0 0 17.813453h54.876929a8.842879 8.842879 0 0 0 8.906727-8.906726z m-34.733042 25.411306a8.938651 8.938651 0 0 0-8.906727-8.906727h-42.937446a8.938651 8.938651 0 0 0 0 17.813454h42.937446a8.938651 8.938651 0 0 0 8.906727-8.906727z m-79.745533 16.50458a8.938651 8.938651 0 0 0 0 17.813454h24.421671a8.938651 8.938651 0 0 0 0-17.813454z m143.624961-151.95706h-32.019523a8.938651 8.938651 0 0 0 0 17.813454h32.019523a8.938651 8.938651 0 0 0 8.906727-8.906727 8.938651 8.938651 0 0 0-8.906727-8.906727z m0 25.411307h-44.661329a8.938651 8.938651 0 0 0 0 17.813453h44.661329a8.938651 8.938651 0 0 0 0-17.813453z m0-76.106225h-14.20607a8.938651 8.938651 0 0 0 0 17.813453h14.20607a8.938651 8.938651 0 0 0 8.906727-8.906727 8.938651 8.938651 0 0 0-8.906727-8.906726z m0 25.411306h-21.835846a8.938651 8.938651 0 0 0 0 17.813454h21.835846a8.938651 8.938651 0 0 0 8.906727-8.906727 8.938651 8.938651 0 0 0-8.906727-8.906727zM74.548825 577.099394a8.874803 8.874803 0 1 1 0 17.813454 8.874803 8.874803 0 1 1 0-17.813454z m35.882297 203.450072a8.874803 8.874803 0 1 1 0 17.813454 8.874803 8.874803 0 1 1 0-17.813454z m57.17544 25.443231a8.874803 8.874803 0 1 1 0.031924 17.78153 8.874803 8.874803 0 0 1-0.031924-17.78153z m-93.887755-83.448688h57.462754c4.884334 0 8.906727-3.990469 8.906727-8.906727s-4.054317-8.906727-8.938651-8.906727h-57.462754a8.906727 8.906727 0 1 0 0.031924 17.813454z m72.786155 7.470158h-22.12316a8.938651 8.938651 0 0 0 0 17.813453h22.12316a8.938651 8.938651 0 0 0 0-17.813453z m20.111964 25.283611H111.739996a8.938651 8.938651 0 0 0 0 17.813454h54.87693a8.874803 8.874803 0 1 0 0-17.813454z m22.825483 25.251688H146.504962a8.938651 8.938651 0 0 0 0 17.813454h42.937447a8.938651 8.938651 0 0 0 8.906726-8.906727 8.938651 8.938651 0 0 0-8.906726-8.906727z m-5.458962 34.349958a8.938651 8.938651 0 0 0 8.906727 8.906726h24.42167a8.938651 8.938651 0 0 0 0-17.813453h-24.42167a8.938651 8.938651 0 0 0-8.906727 8.906727z m-110.26464-143.050334h32.019524a8.938651 8.938651 0 0 0 0-17.813453H73.718807a8.938651 8.938651 0 0 0 0 17.813453z m0 25.443231H118.380136a8.938651 8.938651 0 0 0 0-17.813454H73.718807a8.938651 8.938651 0 0 0 0 17.813454z m0-76.138149h14.20607a8.938651 8.938651 0 0 0 0-17.813454h-14.20607a8.938651 8.938651 0 0 0 0 17.813454z m0 25.283612h21.835847a8.938651 8.938651 0 0 0 0-17.813454h-21.835847a8.938651 8.938651 0 0 0-8.906727 8.906727 8.842879 8.842879 0 0 0 8.906727 8.906727z m438.121574 343.786886c0.127695-0.127695 0-0.127695 0-0.287314z m403.835464-810.512142c0.127695 0 0.127695 0 0 0a8.810956 8.810956 0 0 0 8.58749-6.767836c3.160451-12.641806 1.883501-23.40011-4.182012-32.306837-9.609049-14.333765-27.294808-17.079207-29.27408-17.366521a8.938651 8.938651 0 0 0-9.928287 6.895531c-3.32007 15.068011-1.436569 27.167113 5.746275 36.041916 10.630609 12.897196 27.294808 13.376052 29.018691 13.503747z m-10.024058-29.050615a17.78153 17.78153 0 0 1 2.713519 9.60905 17.238826 17.238826 0 0 1-7.438234-5.139724 17.494216 17.494216 0 0 1-3.447765-11.364856 22.059313 22.059313 0 0 1 8.17248 6.89553z m-47.694085-99.346716c-9.609049-14.333765-27.294808-17.079207-29.274081-17.366521a8.938651 8.938651 0 0 0-9.928287 6.89553c-3.32007 15.068011-1.436569 27.167113 5.746275 36.041916 10.343296 12.92912 26.975571 13.376052 28.859072 13.376052a8.810956 8.810956 0 0 0 8.58749-6.767835c3.32007-12.386416 2.011196-23.272415-3.990469-32.179142z m-19.409642 14.493383a17.494216 17.494216 0 0 1-3.447765-11.364855 19.633108 19.633108 0 0 1 8.172481 6.89553 17.78153 17.78153 0 0 1 2.713519 9.609049 16.919589 16.919589 0 0 1-7.438235-5.139724z m-703.982581 57.462754c-2.011196 0.287314-19.537336 3.032756-29.274081 17.366521-5.87397 8.906727-7.310539 19.665031-4.182011 32.306837a9.098269 9.098269 0 0 0 8.651336 6.767836c1.883501 0 18.515776-0.415009 28.859072-13.376052 7.15092-8.906727 9.034422-21.1016 5.746276-36.041916a8.842879 8.842879 0 0 0-9.800592-7.023226z m-9.60905 31.859905a16.344961 16.344961 0 0 1-7.629776 5.139724c0-3.735079 1.02156-7.023225 2.713519-9.60905a22.059313 22.059313 0 0 1 8.17248-6.89553 18.004996 18.004996 0 0 1-3.288146 11.364856zM195.475998 33.916752c-2.011196 0.287314-19.537336 3.032756-29.337928 17.398445-5.87397 8.906727-7.310539 19.665031-4.118164 32.306837a9.034422 9.034422 0 0 0 8.587489 6.735912c1.883501 0 18.515776-0.415009 28.859072-13.376052 7.182844-8.906727 9.066346-21.1016 5.746275-36.041917A8.842879 8.842879 0 0 0 195.475998 33.916752z m-9.768668 31.891828a16.983436 16.983436 0 0 1-7.56593 5.203572c0-3.735079 1.02156-7.023225 2.713519-9.609049a21.35699 21.35699 0 0 1 8.172481-6.895531 17.494216 17.494216 0 0 1-3.32007 11.332932z m606.327824 385.766621a8.842879 8.842879 0 0 0 8.779031 7.91709h1.02156a8.874803 8.874803 0 0 0 7.757472-9.928287c-8.906727-77.542794-61.900155-132.419724-64.198665-134.718233a8.874803 8.874803 0 0 0-12.641806 12.386415c0.542704 0.51078 51.109927 52.961505 59.282408 124.343015z m-568.721644 7.725548h1.02156c4.469325 0 8.332099-3.32007 8.779032-7.917091 8.172481-71.349586 58.739704-123.768387 59.154712-124.215319a8.874803 8.874803 0 0 0-0.127695-12.514111 8.715184 8.715184 0 0 0-12.514111 0.159619c-2.29851 2.29851-55.164244 57.17544-64.198665 134.718234a8.970574 8.970574 0 0 0 7.885167 9.736744z" p-id="2093" fill="#d81e06"></path></svg>