<?xml version="1.0" standalone="no"?><!DOCTYPE svg PUBLIC "-//W3C//DTD SVG 1.1//EN" "http://www.w3.org/Graphics/SVG/1.1/DTD/svg11.dtd"><svg t="1590043264570" class="icon" viewBox="0 0 1024 1024" version="1.1" xmlns="http://www.w3.org/2000/svg" p-id="3745" xmlns:xlink="http://www.w3.org/1999/xlink" width="200" height="200"><defs><style type="text/css"></style></defs><path d="M512 1024A512 512 0 1 1 512 0a512 512 0 0 1 0 1024z m0-64A448 448 0 1 0 512 64a448 448 0 0 0 0 896z m6.4-128.384a62.208 62.208 0 0 1-43.136-17.088 58.432 58.432 0 0 1-17.664-43.776c0-18.048 5.76-32.064 17.6-43.008a58.24 58.24 0 0 1 43.2-17.024c17.92 0 32.96 5.76 44.416 17.28 11.52 11.52 17.28 25.856 17.28 42.688a57.024 57.024 0 0 1-18.432 43.776 62.144 62.144 0 0 1-43.2 17.152z m144.64-586.88c-33.408-30.848-77.056-45.376-131.84-45.376-61.568 0-109.44 18.816-143.616 56.448-34.24 35.904-50.432 83.84-50.432 143.744h67.584c0-41.92 9.408-74.432 28.224-98.368 20.48-28.288 52.224-41.92 94.976-41.92 35.904 0 64.128 9.408 83.776 29.952 18.816 18.816 29.12 45.44 29.12 79.616 0 23.936-8.512 46.144-25.6 67.584-5.12 6.848-15.36 17.088-29.184 30.72-46.08 41.088-74.368 73.6-86.336 99.328-10.24 21.312-15.36 46.08-15.36 74.24v19.712h68.48v-19.648c0-23.04 5.056-43.52 16.256-62.4 8.512-15.36 21.312-30.784 40.128-47.04 37.632-33.344 60.736-55.616 69.312-65.92 21.376-28.16 32.512-61.504 32.512-99.968-0.128-51.456-16.448-91.648-48-120.704z" p-id="3746" fill="#7e7e7f"></path></svg>