<?xml version="1.0" standalone="no"?><!DOCTYPE svg PUBLIC "-//W3C//DTD SVG 1.1//EN" "http://www.w3.org/Graphics/SVG/1.1/DTD/svg11.dtd"><svg t="1591372461216" class="icon" viewBox="0 0 1024 1024" version="1.1" xmlns="http://www.w3.org/2000/svg" p-id="1259" xmlns:xlink="http://www.w3.org/1999/xlink" width="200" height="200"><defs><style type="text/css"></style></defs><path d="M513.678222 226.616889a129.877333 129.877333 0 0 0-92.416 38.272c-50.944 50.944-50.944 133.831111 0 184.775111a129.962667 129.962667 0 0 0 92.444445 38.272 129.806222 129.806222 0 0 0 92.387555-38.272c50.944-50.944 50.944-133.831111 0-184.775111a129.820444 129.820444 0 0 0-92.416-38.272z m52.195556 182.826667a73.287111 73.287111 0 0 1-52.167111 21.617777 73.472 73.472 0 0 1-52.209778-21.617777 73.870222 73.870222 0 0 1 0-104.334223 73.301333 73.301333 0 0 1 52.181333-21.617777c19.726222 0 38.257778 7.665778 52.195556 21.617777a73.898667 73.898667 0 0 1 0 104.334223zM715.662222 310.371556c-0.995556-4.280889-1.664-7.395556-2.190222-9.784889-1.080889-5.048889-1.749333-8.106667-3.527111-12.245334a14.293333 14.293333 0 0 0-18.688-7.438222c-7.168 3.100444-10.524444 11.463111-7.424 18.688 0.668444 1.521778 0.924444 2.602667 1.863111 6.968889 0.526222 2.545778 1.251556 5.845333 2.304 10.368a14.264889 14.264889 0 0 0 17.109333 10.567111c7.637333-1.820444 12.359111-9.486222 10.552889-17.123555zM688.099556 244.864a214.016 214.016 0 0 0-152.035556-97.635556 14.222222 14.222222 0 1 0-3.854222 28.188445 185.486222 185.486222 0 0 1 131.854222 84.693333 14.222222 14.222222 0 0 0 24.035556-15.246222z" fill="#8a8a8a" p-id="1260"></path><path d="M512.014222 46.392889c-168.405333 0-305.408 137.002667-305.408 305.393778 0 109.880889 158.407111 458.766222 200.96 542.634666 36.721778 72.391111 82.062222 83.2 105.841778 83.2 41.187556 0 78.691556-29.582222 105.642667-83.313777 40.362667-80.483556 198.357333-433.848889 198.357333-542.506667 0.014222-168.405333-137.002667-305.408-305.393778-305.408z m56.177778 822.414222c-16.284444 32.497778-36.778667 51.911111-54.784 51.911111-18.261333 0-38.328889-18.972444-55.111111-52.053333-56.533333-111.416889-194.801778-430.535111-194.801778-516.864 0-137.031111 111.488-248.504889 248.519111-248.504889 137.045333 0 248.519111 111.473778 248.519111 248.504889 0 87.637333-142.890667 418.446222-192.341333 517.006222z" fill="#8a8a8a" p-id="1261"></path></svg>