<?xml version="1.0" standalone="no"?><!DOCTYPE svg PUBLIC "-//W3C//DTD SVG 1.1//EN" "http://www.w3.org/Graphics/SVG/1.1/DTD/svg11.dtd"><svg t="1590044729875" class="icon" viewBox="0 0 1024 1024" version="1.1" xmlns="http://www.w3.org/2000/svg" p-id="5759" xmlns:xlink="http://www.w3.org/1999/xlink" width="200" height="200"><defs><style type="text/css"></style></defs><path d="M807.644959 1024H139.74962C78.369919 1024 28.424249 974.736959 28.424249 914.210544V181.92056c0-60.583301 49.94567-109.789456 111.325371-109.789456h519.480473c20.478862 0 37.089495 16.326204 37.089495 36.577523a36.861952 36.861952 0 0 1-37.089495 36.577524H139.74962a36.918838 36.918838 0 0 0-37.089495 36.634409v732.176212c0 20.251319 16.610633 36.634409 37.089495 36.63441h667.895339c20.478862 0 37.089495-16.38309 37.089495-36.63441V328.401311c0-20.194434 16.610633-36.577523 37.146381-36.577523 20.478862 0 37.089495 16.38309 37.089495 36.577523V914.210544c0 60.583301-49.94567 109.846342-111.325371 109.846342zM473.327532 546.614966a37.146381 37.146381 0 0 1-26.394978-10.865174 36.236209 36.236209 0 0 1 0.284429-51.766013L932.338476 10.637631a37.430809 37.430809 0 0 1 52.448642 0.284429 36.236209 36.236209 0 0 1-0.284429 51.766013L499.438081 535.977335a37.203266 37.203266 0 0 1-26.053663 10.637631z" fill="#666666" p-id="5760"></path></svg>