<svg t="1594276210219" class="icon" viewBox="0 0 1024 1024" version="1.1" xmlns="http://www.w3.org/2000/svg"
     p-id="22264"
     width="200" height="200">
  <g>
    <path d="M241.962667 181.632c167.594667-137.344 415.274667-127.786667 571.733333 28.672 166.613333 166.613333 166.613333 436.778667 0 603.392-166.613333 166.613333-436.778667 166.613333-603.392 0A426.368 426.368 0 0 1 96 416.725333l3.285333-13.354666 82.517334 21.76a341.333333 341.333333 0 1 0 130.261333-189.866667l-9.429333 7.082667L346.026667 285.738667l-196.096 45.226666 45.226666-196.096L241.92 181.632zM554.666667 256v85.333333h106.666666v85.333334H426.666667a21.333333 21.333333 0 0 0-3.84 42.325333L426.666667 469.333333h170.666666a106.666667 106.666667 0 1 1 0 213.333334h-42.666666v85.333333h-85.333334v-85.333333H362.666667v-85.333334H597.333333a21.333333 21.333333 0 0 0 3.84-42.325333L597.333333 554.666667h-170.666666a106.666667 106.666667 0 1 1 0-213.333334h42.666666V256h85.333334z"
    ></path>
  </g>
</svg>