<?xml version="1.0" standalone="no"?><!DOCTYPE svg PUBLIC "-//W3C//DTD SVG 1.1//EN" "http://www.w3.org/Graphics/SVG/1.1/DTD/svg11.dtd"><svg t="1590068208317" class="icon" viewBox="0 0 1024 1024" version="1.1" xmlns="http://www.w3.org/2000/svg" p-id="18871" xmlns:xlink="http://www.w3.org/1999/xlink" width="128" height="128"><defs><style type="text/css"></style></defs><path d="M492.608 736H832v-512H192v512h192v72.384L492.608 736z m19.392 64l-192 128v-128H192a64 64 0 0 1-64-64v-512a64 64 0 0 1 64-64h640a64 64 0 0 1 64 64v512a64 64 0 0 1-64 64H512z" fill="#979797" p-id="18872"></path><path d="M352 384h320v64h-320zM352 544h128v64h-128z" fill="#D8D8D8" p-id="18873"></path></svg>