<?xml version="1.0" standalone="no"?><!DOCTYPE svg PUBLIC "-//W3C//DTD SVG 1.1//EN" "http://www.w3.org/Graphics/SVG/1.1/DTD/svg11.dtd"><svg t="1593084553710" class="icon" viewBox="0 0 1024 1024" version="1.1" xmlns="http://www.w3.org/2000/svg" p-id="7312" xmlns:xlink="http://www.w3.org/1999/xlink" width="200" height="200"><defs><style type="text/css"></style></defs><path d="M967.68 382.976c-20.48-75.776-98.304-121.856-175.104-102.4C747.52 191.488 671.744 124.928 578.56 92.16c-90.112-30.72-186.368-27.648-273.408 10.24-26.624-30.72-66.56-51.2-110.592-51.2-78.848 0-143.36 64.512-143.36 143.36 0 41.984 18.432 79.872 48.128 106.496-44.032 91.136-50.176 192.512-16.384 287.744 33.792 96.256 103.424 173.056 195.584 218.112-10.24 71.68 33.792 141.312 104.448 160.768 12.288 3.072 24.576 5.12 37.888 5.12 24.576 0 49.152-6.144 70.656-18.432 32.768-18.432 57.344-50.176 66.56-87.04 3.072-11.264 4.096-22.528 4.096-33.792C694.272 796.672 796.672 694.272 832.512 563.2c11.264 0 22.528-2.048 33.792-5.12 36.864-9.216 68.608-33.792 87.04-66.56 19.456-32.768 24.576-71.68 14.336-108.544z m-409.6 408.576c-13.312-47.104-50.176-87.04-101.376-100.352-36.864-10.24-75.776-5.12-108.544 13.312-25.6 14.336-45.056 36.864-57.344 62.464-79.872-39.936-140.288-107.52-169.984-191.488C92.16 492.544 96.256 403.456 133.12 323.584c18.432 9.216 38.912 14.336 61.44 14.336 78.848 0 143.36-64.512 143.36-143.36 0-20.48-4.096-38.912-11.264-56.32 75.776-31.744 159.744-33.792 238.592-7.168 82.944 28.672 149.504 87.04 190.464 165.888-20.48 12.288-37.888 29.696-50.176 51.2-18.432 32.768-23.552 72.704-14.336 108.544 13.312 50.176 53.248 88.064 100.352 101.376-32.768 112.64-120.832 200.704-233.472 233.472z" p-id="7313" fill="#707070"></path></svg>