<?xml version="1.0" standalone="no"?><!DOCTYPE svg PUBLIC "-//W3C//DTD SVG 1.1//EN" "http://www.w3.org/Graphics/SVG/1.1/DTD/svg11.dtd"><svg t="1593413474089" class="icon" viewBox="0 0 1024 1024" version="1.1" xmlns="http://www.w3.org/2000/svg" p-id="32718" xmlns:xlink="http://www.w3.org/1999/xlink" width="200" height="200"><defs><style type="text/css"></style></defs><path d="M512 733.2c-44.99 0-88.65-8.82-129.77-26.21-39.7-16.79-75.35-40.82-105.95-71.43-30.61-30.61-54.64-66.25-71.43-105.96-17.39-41.12-26.21-84.78-26.21-129.77s8.82-88.65 26.21-129.77c16.79-39.7 40.82-75.35 71.43-105.95s66.25-54.64 105.95-71.43C423.35 75.29 467.01 66.47 512 66.47c44.99 0 88.65 8.82 129.77 26.21 39.7 16.79 75.35 40.82 105.95 71.43 30.61 30.61 54.64 66.25 71.43 105.95 17.39 41.12 26.21 84.78 26.21 129.77s-8.82 88.65-26.21 129.77c-16.79 39.7-40.82 75.35-71.43 105.96-30.61 30.61-66.25 54.64-105.95 71.43-41.12 17.39-84.78 26.21-129.77 26.21z m0-606.73c-150.73 0-273.36 122.63-273.36 273.36 0 150.73 122.63 273.36 273.36 273.36s273.36-122.63 273.36-273.36c0-150.73-122.63-273.36-273.36-273.36z" fill="#515151" p-id="32719"></path><path d="M512 957.53c-16.57 0-30-13.43-30-30V703.2c0-16.57 13.43-30 30-30s30 13.43 30 30v224.34c0 16.56-13.43 29.99-30 29.99z" fill="#515151" p-id="32720"></path><path d="M510.74 957.53H351.86c-104.3 0-189.16-84.86-189.16-189.16 0-17.24 14.02-31.26 31.26-31.26h158.88c104.3 0 189.16 84.86 189.16 189.16 0 17.24-14.02 31.26-31.26 31.26zM225.93 797.12c13.1 57.43 64.59 100.42 125.93 100.42h126.92c-13.1-57.43-64.59-100.42-125.93-100.42H225.93z" fill="#515151" p-id="32721"></path><path d="M672.14 957.53H513.26c-17.24 0-31.26-14.02-31.26-31.26 0-104.3 84.86-189.16 189.16-189.16h158.88c17.24 0 31.26 14.02 31.26 31.26 0 104.31-84.86 189.16-189.16 189.16z m-126.92-60h126.92c61.34 0 112.83-42.99 125.93-100.42H671.16c-61.34 0.01-112.84 42.99-125.94 100.42z" fill="#515151" p-id="32722"></path><path d="M512 574.51c-16.57 0-30-13.43-30-30v-193c0-16.57 13.43-30 30-30s30 13.43 30 30v193c0 16.57-13.43 30-30 30z" fill="#515151" p-id="32723"></path><path d="M512.25 381h-0.51a30 30 0 0 1-24.98-13.38L423 271.78c-9.18-13.79-5.43-32.42 8.36-41.59 13.8-9.18 32.42-5.43 41.59 8.36L512 297.22l39.04-58.68c9.18-13.8 27.8-17.54 41.59-8.36 13.79 9.18 17.54 27.8 8.36 41.59l-63.76 95.84A30.01 30.01 0 0 1 512.25 381z" fill="#515151" p-id="32724"></path><path d="M607.63 381.51H416.37c-16.57 0-30-13.43-30-30s13.43-30 30-30h191.25c16.57 0 30 13.43 30 30s-13.42 30-29.99 30zM607.63 477.29H416.37c-16.57 0-30-13.43-30-30s13.43-30 30-30h191.25c16.57 0 30 13.43 30 30s-13.42 30-29.99 30z" fill="#515151" p-id="32725"></path></svg>