<?xml version="1.0" standalone="no"?><!DOCTYPE svg PUBLIC "-//W3C//DTD SVG 1.1//EN" "http://www.w3.org/Graphics/SVG/1.1/DTD/svg11.dtd"><svg t="1590043111809" class="icon" viewBox="0 0 1024 1024" version="1.1" xmlns="http://www.w3.org/2000/svg" p-id="2432" xmlns:xlink="http://www.w3.org/1999/xlink" width="200" height="200"><defs><style type="text/css"></style></defs><path d="M934.229333 438.4c-2.986667-3.882667-6.869333-6.186667-11.690667-6.954667L820.906667 415.914667c-5.589333-17.792-13.184-35.925333-22.784-54.442667 6.656-9.258667 16.64-22.314667 29.994667-39.168 13.312-16.853333 22.784-29.184 28.330667-36.949333 2.944-4.096 4.437333-8.32 4.437333-12.8 0-5.162667-1.28-9.258667-3.882667-12.202667-13.354667-18.901333-43.904-50.389333-91.690667-94.464-4.437333-3.669333-9.045333-5.546667-13.866667-5.546667-5.546667 0-9.984 1.664-13.354667 4.992l-78.848 59.477333c-15.189333-7.808-31.872-14.634667-50.005333-20.565333l-15.573333-102.229333c-0.384-4.821333-2.517333-8.789333-6.4-11.946667S578.858667 85.333333 573.653333 85.333333l-123.306667 0c-10.752 0-17.408 5.205333-20.010667 15.573333C425.514667 119.424 420.138667 153.856 414.208 204.245333 396.8 209.792 379.946667 216.832 363.648 225.365333L287.018667 165.888c-4.821333-3.669333-9.642667-5.546667-14.464-5.546667-8.149333 0-25.642667 13.269333-52.48 39.722667-26.88 26.496-45.098667 46.421333-54.741333 59.733333C162.005333 264.618667 160.341333 268.885333 160.341333 272.554667c0 4.48 1.834667 8.917333 5.546667 13.354667C190.72 315.904 210.517333 341.461333 225.322667 362.581333 216.064 379.605333 208.853333 396.629333 203.648 413.696L100.352 429.226667c-4.096 0.768-7.594667 3.157333-10.581333 7.253333C86.826667 440.533333 85.333333 444.8 85.333333 449.237333l0 123.349333c0 4.821333 1.493333 9.173333 4.437333 13.056 2.986667 3.882667 6.869333 6.186667 11.690667 6.912L203.093333 607.573333c5.205333 18.133333 12.8 36.48 22.784 54.997333-6.656 9.258667-16.64 22.314667-29.994667 39.168-13.312 16.853333-22.784 29.184-28.330667 36.949333-2.944 4.053333-4.437333 8.32-4.437333 12.757333 0 4.821333 1.28 9.088 3.882667 12.8 14.464 20.010667 45.013333 51.114667 91.648 93.312 4.096 4.096 8.704 6.144 13.909333 6.144 5.546667 0 10.197333-1.664 13.909333-5.034667l78.293333-59.434667c15.189333 7.808 31.872 14.634667 50.005333 20.565333l15.573333 102.229333c0.384 4.821333 2.517333 8.789333 6.4 11.946667 3.882667 3.157333 8.405333 4.693333 13.610667 4.693333l123.306667 0c10.752 0 17.408-5.162667 20.010667-15.530667 4.821333-18.517333 10.197333-52.949333 16.128-103.338667 17.408-5.546667 34.261333-12.586667 50.56-21.12l76.629333 59.989333c5.205333 3.370667 10.026667 5.034667 14.464 5.034667 8.149333 0 25.557333-13.184 52.224-39.466667 26.666667-26.282667 45.013333-46.293333 54.997333-59.989333 3.328-3.712 4.992-7.978667 4.992-12.8 0-4.778667-1.834667-9.429333-5.546667-13.866667-26.666667-32.597333-46.464-58.154667-59.434667-76.672 7.381333-13.696 14.634667-30.549333 21.674667-50.56l102.741333-15.530667c4.48-0.768 8.149333-3.157333 11.136-7.253333C937.173333 583.509333 938.666667 579.242667 938.666667 574.805333l0-123.349333C938.666667 446.634667 937.173333 442.282667 934.229333 438.4zM896 555.690667l-107.434667 16.554667c0 0-18.048 55.722667-39.125333 90.88 21.589333 32.597333 64.725333 87.808 64.725333 87.808s-55.210667 61.738667-63.232 63.786667c-15.573333-11.562667-86.357333-66.773333-86.357333-66.773333s-56.704 32.64-93.866667 39.168c-2.005333 21.546667-13.013333 102.869333-15.018667 108.885333-17.066667 0.512-85.845333 0-85.845333 0l-16.554667-108.416c0 0-59.733333-17.578667-93.397333-39.125333-40.149333 31.104-85.802667 66.261333-85.802667 66.261333L209.834667 750.933333c0 0 52.693333-65.237333 65.749333-84.821333C264.021333 644.522667 257.024 640 236.416 568.746667c-63.744-8.533333-108.928-15.573333-108.928-15.573333l0-85.333333 108.928-16.042667c0 0 15.573333-58.752 39.168-91.861333C249.472 323.285333 209.834667 271.573333 209.834667 271.573333s53.674667-57.728 64.256-62.72c11.008 9.002667 84.821333 66.261333 84.821333 66.261333s54.698667-28.629333 94.378667-38.656C456.789333 205.824 466.304 135.552 468.309333 128l85.333333 0 16.597333 107.434667c0 0 80.042667 27.349333 92.330667 39.68 21.12-15.061333 87.850667-65.792 87.850667-65.792s49.194667 47.701333 61.738667 63.274667c-12.544 17.536-64.725333 86.314667-64.725333 86.314667s28.586667 46.208 40.661333 94.378667C829.738667 460.8 896 470.869333 896 470.869333L896 555.690667z" p-id="2433" fill="#7e7e7f"></path><path d="M511.744 326.442667c-102.528 0-185.685333 83.114667-185.685333 185.685333 0 102.528 83.157333 185.642667 185.685333 185.642667 102.528 0 185.685333-83.114667 185.685333-185.642667C697.429333 409.557333 614.272 326.442667 511.744 326.442667zM511.744 654.08c-78.421333 0-141.952-63.573333-141.952-141.952 0-78.421333 63.530667-141.994667 141.952-141.994667 78.421333 0 141.952 63.573333 141.952 141.994667C653.696 590.506667 590.165333 654.08 511.744 654.08z" p-id="2434" fill="#7e7e7f"></path></svg>